<svg id="Layer_1" data-name="Layer 1" xmlns="http://www.w3.org/2000/svg" viewBox="0 0 1232 1232"><defs><style>.cls-1{fill:#ddc9af;}.cls-2{fill:#498dc4;}</style></defs><path class="cls-1" d="M129.5,179.5v706H740.42a277.23,277.23,0,0,1-12.32-60.79h-465V723.59H737.64A278.44,278.44,0,0,1,845,572.62H263V471.5h742V522a277.26,277.26,0,0,1,97.5,17.6V179.5ZM175,237H596v57.5H175ZM602,625.19v57.5H181v-57.5ZM1004.5,426.5h-742v-94h742Z"/><path class="cls-2" d="M1148,834.47l51.13-.11-.19-89.58-51.46.11a155.23,155.23,0,0,0-11.76-28.31l36.59-36.27-63.06-63.62L1072.62,653a156.13,156.13,0,0,0-29.84-12.51V589H953.2v51.13A156.22,156.22,0,0,0,920.48,654l-36.85-35.22L821.74,683.5l36.51,34.89a156.05,156.05,0,0,0-11,27.14l-50.36.11.19,89.58,50-.11a155.27,155.27,0,0,0,12.08,29.4l-35.5,35.18,63.06,63.62,35.5-35.18A155.46,155.46,0,0,0,953.2,941v50h89.58V940.64a155.74,155.74,0,0,0,33-14.3l36.54,34.92,61.89-64.76-36.86-35.23A156.43,156.43,0,0,0,1148,834.47Zm-145.91,46.85a86.9,86.9,0,1,1,86.89-86.89A86.89,86.89,0,0,1,1002.05,881.32Z"/></svg>