<?xml version="1.0" encoding="UTF-8" standalone="no"?>
<!-- Generator: Adobe Illustrator 21.0.0, SVG Export Plug-In . SVG Version: 6.00 Build 0)  -->

<svg
   xmlns:dc="http://purl.org/dc/elements/1.1/"
   xmlns:cc="http://creativecommons.org/ns#"
   xmlns:rdf="http://www.w3.org/1999/02/22-rdf-syntax-ns#"
   xmlns:svg="http://www.w3.org/2000/svg"
   xmlns="http://www.w3.org/2000/svg"
   xmlns:sodipodi="http://sodipodi.sourceforge.net/DTD/sodipodi-0.dtd"
   xmlns:inkscape="http://www.inkscape.org/namespaces/inkscape"
   version="1.1"
   id="Layer_1"
   x="0px"
   y="0px"
   viewBox="0 0 1232.4 1232.4"
   xml:space="preserve"
   sodipodi:docname="masterlist-icon-modified.svg"
   width="1232.4"
   height="1232.4"
   inkscape:version="0.92.3 (2405546, 2018-03-11)"><metadata
   id="metadata23"><rdf:RDF><cc:Work
       rdf:about=""><dc:format>image/svg+xml</dc:format><dc:type
         rdf:resource="http://purl.org/dc/dcmitype/StillImage" /><dc:title /></cc:Work></rdf:RDF></metadata><defs
   id="defs21" /><sodipodi:namedview
   pagecolor="#ffffff"
   bordercolor="#666666"
   borderopacity="1"
   objecttolerance="10"
   gridtolerance="10"
   guidetolerance="10"
   inkscape:pageopacity="0"
   inkscape:pageshadow="2"
   inkscape:window-width="3775"
   inkscape:window-height="2136"
   id="namedview19"
   showgrid="false"
   inkscape:zoom="0.60493827"
   inkscape:cx="294.13152"
   inkscape:cy="232.61899"
   inkscape:window-x="2625"
   inkscape:window-y="24"
   inkscape:window-maximized="1"
   inkscape:current-layer="Layer_1" />
<style
   type="text/css"
   id="style2">
	.st0{opacity:0.5;fill:#6BA542;}
	.st1{fill:none;stroke:#FFFFFF;stroke-width:10;stroke-miterlimit:10;}
	.st2{fill:#FFFFFF;}
</style>
<path
   class="cls-1"
   d="M 1059.0907,1233.5666 H 178.69073 c -96.800005,0 -176.0000049,-79.2 -176.0000049,-176 V 177.27666 C 2.6907251,80.476654 81.890725,1.2766543 178.69073,1.2766543 h 880.39997 c 96.8,0 176,79.1999997 176,176.0000057 v 880.39994 c 0,96.7 -79.2,175.89 -176,175.89 z"
   id="path8"
   inkscape:connector-curvature="0"
   style="fill:#ffffff;fill-opacity:1" />






<g
   id="g64"
   transform="matrix(2.2617031,0,0,2.2617031,-18.448721,160.04765)"><g
     id="g60"><polygon
       class="st3"
       points="478.7,347.6 87.4,347.6 87.4,46.4 435.3,46.4 478.7,89.1 "
       id="polygon12"
       style="fill:#a29bab" /><rect
       x="120.6"
       y="121.6"
       class="st4"
       width="54.900002"
       height="24.700001"
       id="rect14-9"
       style="fill:#ffffff" /><rect
       x="193.7"
       y="121.6"
       class="st4"
       width="49.799999"
       height="24.700001"
       id="rect16"
       style="fill:#ffffff" /><rect
       x="263.79999"
       y="121.6"
       class="st4"
       width="49.099998"
       height="24.700001"
       id="rect18"
       style="fill:#ffffff" /><rect
       x="330.29999"
       y="121.6"
       class="st4"
       width="54.900002"
       height="24.700001"
       id="rect20"
       style="fill:#ffffff" /><rect
       x="403.70001"
       y="121.6"
       class="st4"
       width="41.200001"
       height="24.700001"
       id="rect22"
       style="fill:#ffffff" /><rect
       x="120.6"
       y="167.3"
       class="st4"
       width="54.900002"
       height="24.700001"
       id="rect24"
       style="fill:#ffffff" /><rect
       x="193.7"
       y="167.3"
       class="st4"
       width="49.799999"
       height="24.700001"
       id="rect26"
       style="fill:#ffffff" /><polygon
       class="st4"
       points="263.7,167.3 263.7,192 330.3,192 352.4,192 385.2,192 385.2,167.3 352.4,167.3 330.3,167.3 "
       id="polygon28"
       style="fill:#ffffff" /><rect
       x="403.70001"
       y="167.3"
       class="st4"
       width="41.200001"
       height="24.700001"
       id="rect30"
       style="fill:#ffffff" /><polygon
       class="st4"
       points="120.6,210.1 120.6,234.8 188.6,234.8 221.3,234.8 243.5,234.8 243.5,210.1 221.3,210.1 188.6,210.1 "
       id="polygon32"
       style="fill:#ffffff" /><rect
       x="263.79999"
       y="210.10001"
       class="st4"
       width="49.099998"
       height="24.700001"
       id="rect34"
       style="fill:#ffffff" /><rect
       x="330.29999"
       y="210.10001"
       class="st4"
       width="54.900002"
       height="24.700001"
       id="rect36"
       style="fill:#ffffff" /><rect
       x="403.70001"
       y="210.10001"
       class="st4"
       width="41.200001"
       height="24.700001"
       id="rect38"
       style="fill:#ffffff" /><rect
       x="120.6"
       y="252.89999"
       class="st4"
       width="54.900002"
       height="24.700001"
       id="rect40"
       style="fill:#ffffff" /><rect
       x="193.7"
       y="252.89999"
       class="st4"
       width="49.799999"
       height="24.700001"
       id="rect42"
       style="fill:#ffffff" /><rect
       x="263.79999"
       y="252.89999"
       class="st4"
       width="49.099998"
       height="24.700001"
       id="rect44"
       style="fill:#ffffff" /><rect
       x="330.29999"
       y="252.89999"
       class="st4"
       width="54.900002"
       height="24.700001"
       id="rect46"
       style="fill:#ffffff" /><rect
       x="403.70001"
       y="252.89999"
       class="st4"
       width="41.200001"
       height="24.700001"
       id="rect48"
       style="fill:#ffffff" /><rect
       x="120.6"
       y="296"
       class="st4"
       width="54.900002"
       height="24.700001"
       id="rect50"
       style="fill:#ffffff" /><rect
       x="193.7"
       y="296"
       class="st4"
       width="49.799999"
       height="24.700001"
       id="rect52"
       style="fill:#ffffff" /><rect
       x="263.79999"
       y="296"
       class="st4"
       width="49.099998"
       height="24.700001"
       id="rect54"
       style="fill:#ffffff" /><polygon
       class="st4"
       points="329.5,296 329.5,320.7 391.8,320.7 413.4,320.7 443.1,320.7 443.1,296 413.4,296 391.8,296 "
       id="polygon56"
       style="fill:#ffffff" /><polyline
       class="st5"
       points="427.8,47.1 427.8,95 475.1,95   "
       id="polyline58"
       style="fill:none;stroke:#f1f2f2;stroke-width:11.85009956;stroke-miterlimit:10" /></g><polygon
     class="st6"
     points="479.8,347.6 87.2,347.6 87.2,47.5 433.8,46.5 479.8,91.5 "
     id="polygon62"
     style="fill:none;stroke:#f1f2f2;stroke-width:10.71710014;stroke-miterlimit:10" /></g></svg>