<?xml version="1.0" encoding="UTF-8" standalone="no"?>
<!-- Generator: Adobe Illustrator 21.0.0, SVG Export Plug-In . SVG Version: 6.00 Build 0)  -->

<svg
   xmlns:dc="http://purl.org/dc/elements/1.1/"
   xmlns:cc="http://creativecommons.org/ns#"
   xmlns:rdf="http://www.w3.org/1999/02/22-rdf-syntax-ns#"
   xmlns:svg="http://www.w3.org/2000/svg"
   xmlns="http://www.w3.org/2000/svg"
   xmlns:sodipodi="http://sodipodi.sourceforge.net/DTD/sodipodi-0.dtd"
   xmlns:inkscape="http://www.inkscape.org/namespaces/inkscape"
   version="1.1"
   id="Layer_1"
   x="0px"
   y="0px"
   viewBox="0 0 1232.4 1232.4"
   xml:space="preserve"
   sodipodi:docname="update-icon-modified.svg"
   width="1232.4"
   height="1232.4"
   inkscape:version="0.92.3 (2405546, 2018-03-11)"><metadata
   id="metadata49"><rdf:RDF><cc:Work
       rdf:about=""><dc:format>image/svg+xml</dc:format><dc:type
         rdf:resource="http://purl.org/dc/dcmitype/StillImage" /><dc:title></dc:title></cc:Work></rdf:RDF></metadata><defs
   id="defs47" /><sodipodi:namedview
   pagecolor="#ffffff"
   bordercolor="#666666"
   borderopacity="1"
   objecttolerance="10"
   gridtolerance="10"
   guidetolerance="10"
   inkscape:pageopacity="0"
   inkscape:pageshadow="2"
   inkscape:window-width="3775"
   inkscape:window-height="2136"
   id="namedview45"
   showgrid="false"
   inkscape:zoom="0.2117731"
   inkscape:cx="1194.5105"
   inkscape:cy="123.75102"
   inkscape:window-x="2625"
   inkscape:window-y="24"
   inkscape:window-maximized="1"
   inkscape:current-layer="Layer_1" />
<style
   type="text/css"
   id="style2">
	.st0{fill:#DBD7A5;}
	.st1{fill:#F1F2F2;}
	.st2{fill:#FFFFFF;}
	.st3{opacity:0.5;fill:#6BA542;}
</style>








<path
   class="cls-1"
   d="M 1058.0112,1233.9049 H 177.61117 c -96.799992,0 -175.9999924,-79.2 -175.9999924,-176 V 177.61509 C 1.6111776,80.815085 80.811178,1.6150852 177.61117,1.6150852 h 880.40003 c 96.8,0 175.9999,79.1999998 175.9999,176.0000048 v 880.39981 c 0,96.7 -79.1999,175.89 -175.9999,175.89 z"
   id="path8"
   inkscape:connector-curvature="0"
   style="fill:#fbffff;fill-opacity:1" /><g
   id="g4635"
   transform="matrix(2.1687503,0,0,2.1687503,64.945578,162.39878)"><rect
     id="rect4"
     height="226.8"
     width="322.5"
     class="st0"
     y="58"
     x="139.5"
     style="fill:#dbd7a5" /><rect
     id="rect6"
     height="19.4"
     width="294.60001"
     class="st1"
     y="162.10001"
     x="153.5"
     style="fill:#f1f2f2" /><rect
     id="rect8"
     height="19.4"
     width="294.60001"
     class="st1"
     y="208.2"
     x="153.5"
     style="fill:#f1f2f2" /><rect
     id="rect10"
     height="19.4"
     width="294.60001"
     class="st1"
     y="79.400002"
     x="153.5"
     style="fill:#f1f2f2" /><rect
     id="rect12"
     height="19.4"
     width="159.3"
     class="st1"
     y="119.9"
     x="288.70001"
     style="fill:#f1f2f2" /><rect
     id="rect14"
     height="19.4"
     width="117.2"
     class="st1"
     y="119.9"
     x="152.8"
     style="fill:#f1f2f2" /><rect
     id="rect16"
     height="17.1"
     width="49.900002"
     class="st1"
     y="249.7"
     x="397.70001"
     style="fill:#f1f2f2" /><g
     id="g22">
	<path
   style="fill:#ffffff"
   inkscape:connector-curvature="0"
   id="path18"
   d="m 221,283.5 c -6.9,-10.5 -17,-18.2 -28.4,-23.1 -12.6,-5.4 -26.1,-7.8 -39.8,-8.6 -11.7,-0.7 -23.6,-0.2 -35.2,1.6 -18.4,2.9 -37.7,10.3 -49.7,25.3 -6.1,7.8 -10.3,16.8 -12,26.6 -1.3,7.5 -1.3,15 -1.3,22.5 0,3.4 0,6.8 0,10.2 0,0.9 0,1.8 0.1,2.7 0.5,4.2 2.5,7.8 6,10.3 3.3,2.3 7,2.4 10.7,2.4 9.4,0 18.7,0 28,0 14.7,0 29.4,0 44.2,0 14.6,0 29.2,0 43.8,0 9,0 18,0 26.9,0 0.7,0 1.4,0 2.2,0 4.7,0 9,-2.2 11.7,-6.1 2.3,-3.2 2.4,-6.9 2.4,-10.6 0,-3.6 0,-7.2 0,-10.8 0,-2.1 0,-4.3 0,-6.5 0.1,-12.6 -2.7,-25.3 -9.6,-35.9 z"
   class="st2" />
	<path
   style="fill:#ffffff"
   inkscape:connector-curvature="0"
   id="path20"
   d="m 121.5,236.5 c 9.9,4.5 20.7,5.8 31.4,3.6 19.8,-3.9 36.1,-20.8 39.2,-40.8 0.4,-2.7 0.7,-5.5 0.7,-8.3 0,0 0,0 0,0 -0.1,-10.1 -3.1,-20.4 -9,-28.7 -6.1,-8.5 -14.4,-14.9 -24.2,-18.5 -19.3,-7.1 -42.2,-0.9 -55.3,15 -6.7,8.2 -10.7,17.9 -11.6,28.5 -0.9,10.2 1.7,20.9 7.1,29.6 5.1,8.6 12.8,15.6 21.7,19.6 z"
   class="st2" />
</g><g
     id="g42">
	<path
   style="opacity:0.5;fill:#6ba542"
   inkscape:connector-curvature="0"
   id="path24"
   d="m 61.3,344.7 c 0,0 -16.9,-93.5 84.1,-87.2 0,0 86.2,-14.3 82.9,89.8 z"
   class="st3" />
	<ellipse
   style="opacity:0.5;fill:#6ba542"
   id="ellipse26"
   ry="43.900002"
   rx="46.400002"
   cy="188.39999"
   cx="144.2"
   class="st3" />
	<g
   id="g40">
		<g
   id="g32">
			<g
   id="g30">
				<path
   style="fill:#f1f2f2"
   inkscape:connector-curvature="0"
   id="path28"
   d="m 219,319.4 c 0,5.7 0,11.4 0,17 0,1 0,1.9 0,2.9 0,0.1 0,0.1 0,0.2 0,0.1 0,0.3 0,0.4 0,0.8 -0.3,0.1 0.1,-0.4 -0.1,0.1 -0.2,0.6 -0.2,0.8 -0.2,1.1 0.5,-0.6 0.1,-0.1 -0.1,0.1 -0.4,0.9 -0.5,0.8 0.5,-0.6 0.6,-0.8 0.3,-0.4 -0.1,0.1 -0.3,0.3 -0.4,0.4 0,0 -0.5,0.5 -0.6,0.5 0.2,-0.1 0.4,-0.3 0.6,-0.5 -0.2,0.1 -0.4,0.3 -0.6,0.4 -0.6,0.4 -0.4,-0.2 0.4,-0.1 -0.1,0 -0.6,0.2 -0.7,0.2 -1.2,0.4 1,0 0.2,0 0.4,0 -1.7,0.1 -0.6,0 v 0 c -0.1,0 -0.3,0 -0.5,0 -6.9,0 -13.8,0 -20.7,0 -13.3,0 -26.6,0 -40,0 -14.8,0 -29.6,0 -44.4,0 -11.2,0 -22.4,0 -33.6,0 -2.7,0 -5.4,0 -8.1,0 -0.6,0 -1.1,0 -1.6,0 -0.8,0 1.4,0.4 0.2,0 0.1,0 -0.8,-0.2 -0.7,-0.2 0,-0.1 1.2,0.7 0.2,0 -1,-0.6 -0.1,0.2 0.1,0.1 0,0 -0.5,-0.4 -0.6,-0.5 -0.1,-0.1 -0.2,-0.2 -0.3,-0.3 -0.3,-0.4 -0.3,-0.4 0,0 0.1,0.1 0.1,0.2 0.2,0.3 -0.1,-0.2 -0.3,-0.4 -0.4,-0.6 -0.6,-0.9 0.3,1.1 0,0 0,0.1 -0.2,-0.8 -0.2,-0.8 0,0 0.1,1.4 0.1,0.1 0,-0.1 0,-0.2 0,-0.3 0,-0.3 0,-0.6 0,-0.9 0,-6.1 0,-12.2 0,-18.4 0,-1.4 0,-2.7 0.1,-4 0.1,-1.2 0.1,-2.4 0.2,-3.6 0.1,-0.6 0.1,-1.1 0.2,-1.7 0,-0.3 0.1,-0.7 0.1,-0.9 0,0.3 -0.1,0.5 -0.1,0.8 0,-0.2 0.1,-0.5 0.1,-0.7 0.7,-4.6 2,-8.9 3.6,-13.2 0.3,-0.8 -0.6,1.4 -0.1,0.3 0.1,-0.2 0.2,-0.4 0.3,-0.6 0.2,-0.5 0.5,-1 0.7,-1.5 0.5,-1 1,-2 1.5,-2.9 1,-1.8 2.2,-3.5 3.4,-5.1 0.7,-0.9 -0.7,0.9 -0.2,0.3 0.2,-0.2 0.3,-0.4 0.5,-0.6 0.3,-0.3 0.5,-0.6 0.8,-1 0.7,-0.8 1.4,-1.6 2.1,-2.4 1.5,-1.5 3.1,-3 4.8,-4.3 0.2,-0.1 0.3,-0.3 0.5,-0.4 0.7,-0.6 -0.4,0.3 -0.4,0.3 0.4,-0.3 0.9,-0.6 1.3,-1 0.9,-0.6 1.8,-1.3 2.7,-1.9 1.8,-1.1 3.6,-2.2 5.5,-3.1 1,-0.5 1.9,-1 2.9,-1.4 0.5,-0.2 0.9,-0.4 1.4,-0.6 1.1,-0.5 -1.1,0.4 -0.3,0.1 0.3,-0.1 0.6,-0.3 1,-0.4 2.1,-0.9 4.3,-1.6 6.5,-2.3 4.6,-1.4 9.2,-2.5 13.9,-3.2 0.6,-0.1 1.1,-0.2 1.7,-0.3 0.6,-0.1 1.4,0 1.9,-0.3 -0.1,0.1 -1.5,0.2 -0.4,0.1 0.3,0 0.5,-0.1 0.8,-0.1 0.8,-0.1 1.6,-0.2 2.4,-0.3 2.5,-0.3 5,-0.5 7.6,-0.6 5.9,-0.3 11.8,-0.4 17.7,-0.1 3.4,0.1 6.7,0.4 10,0.8 0.3,0 0.7,0.1 1,0.1 0,0 1.6,0.2 0.7,0.1 -0.9,-0.1 0.7,0.1 0.7,0.1 0.3,0.1 0.6,0.1 1,0.1 1.6,0.3 3.2,0.5 4.9,0.9 6,1.2 11.9,2.8 17.5,5.1 0.3,0.1 0.6,0.2 0.8,0.4 -1.1,-0.6 -0.5,-0.2 -0.2,-0.1 0.7,0.3 1.4,0.6 2,0.9 1.3,0.6 2.6,1.3 3.9,2 2.6,1.4 5.1,3 7.4,4.8 -1,-0.8 0.4,0.3 0.4,0.4 0.3,0.2 0.5,0.4 0.8,0.7 0.6,0.5 1.2,1 1.7,1.6 1,1 2.1,2 3,3 0.7,0.8 2,1.9 2.4,2.9 -0.4,-0.9 -0.5,-0.7 -0.2,-0.2 0.2,0.3 0.4,0.5 0.6,0.8 0.4,0.6 0.9,1.2 1.2,1.8 1.4,2.1 2.6,4.4 3.7,6.7 0.1,0.3 0.3,0.6 0.4,0.9 0.4,0.8 -0.5,-1.4 0,-0.1 0.2,0.6 0.5,1.2 0.7,1.8 0.5,1.4 0.9,2.7 1.3,4.1 0.4,1.4 0.7,2.7 1,4.1 0.1,0.6 0.2,1.2 0.3,1.8 0.1,0.5 0.1,0.9 0.2,1.4 0.1,0.4 0.4,0.9 0,-0.2 0.4,1.2 0.3,3 0.4,4.3 -0.2,1.6 -0.2,3.3 -0.1,5 0,3.1 2.7,6 5.9,5.9 3.2,-0.1 5.9,-2.6 5.9,-5.9 0,-12.5 -2.8,-25.3 -9.7,-35.9 -6.9,-10.5 -17,-18.2 -28.4,-23.1 -12.6,-5.4 -26.1,-7.8 -39.8,-8.6 -11.7,-0.7 -23.6,-0.2 -35.2,1.6 -18.4,2.9 -37.7,10.3 -49.7,25.3 -6.1,7.8 -10.3,16.8 -12,26.6 -1.3,7.5 -1.3,15 -1.3,22.5 0,3.4 0,6.8 0,10.2 0,0.9 0,1.8 0.1,2.7 0.5,4.2 2.5,7.8 6,10.3 3.3,2.3 7,2.4 10.7,2.4 9.4,0 18.7,0 28,0 14.7,0 29.4,0 44.2,0 14.6,0 29.2,0 43.8,0 9,0 18,0 26.9,0 0.7,0 1.4,0 2.2,0 4.7,0 9,-2.2 11.7,-6.1 2.3,-3.2 2.4,-6.9 2.4,-10.6 0,-3.6 0,-7.2 0,-10.8 0,-2.1 0,-4.3 0,-6.5 0,-3.1 -2.7,-6 -5.9,-5.9 -3.2,0.1 -5.8,2.6 -5.8,5.9 z"
   class="st1" />
			</g>
		</g>
		<g
   id="g38">
			<g
   id="g36">
				<path
   style="fill:#f1f2f2"
   inkscape:connector-curvature="0"
   id="path34"
   d="m 181,191.1 c 0,1.1 0,2.2 -0.1,3.3 0,0.5 -0.1,1.1 -0.1,1.6 0,0.1 0,0.6 -0.1,0.8 0.1,-0.8 0.1,-1 0.1,-0.6 0,0.2 -0.1,0.4 -0.1,0.6 -0.4,2.1 -0.9,4.3 -1.6,6.4 -0.3,1 -0.7,2 -1.1,2.9 -0.3,0.7 0.5,-1 0.1,-0.3 -0.1,0.2 -0.2,0.5 -0.3,0.7 -0.2,0.5 -0.5,1.1 -0.8,1.6 -1,1.9 -2.1,3.8 -3.4,5.6 -0.2,0.3 -0.6,1.1 -0.9,1.2 0.1,0 0.9,-1.1 0.2,-0.3 -0.2,0.2 -0.3,0.4 -0.5,0.6 -0.7,0.8 -1.4,1.6 -2.2,2.4 -0.7,0.7 -1.4,1.4 -2.2,2.1 -0.4,0.4 -0.8,0.7 -1.1,1 -0.2,0.2 -0.4,0.3 -0.6,0.5 -0.8,0.6 -0.1,0.3 0.1,-0.1 -0.4,0.6 -1.9,1.4 -2.5,1.8 -1,0.6 -2,1.2 -3,1.8 -0.9,0.5 -1.8,1 -2.8,1.4 -0.2,0.1 -0.5,0.2 -0.7,0.3 -0.7,0.3 0.1,0.2 0.3,-0.1 -0.2,0.3 -1.3,0.5 -1.6,0.6 -2,0.7 -4.1,1.3 -6.3,1.8 -0.5,0.1 -1.1,0.2 -1.6,0.3 0,0 -0.7,0.2 -0.8,0.1 0.2,0.1 1.2,-0.1 0.4,-0.1 -1.2,0.1 -2.4,0.2 -3.6,0.3 -2.3,0.1 -4.6,0 -6.9,-0.3 -0.9,-0.1 0.2,0.2 0.4,0.1 -0.1,0 -0.8,-0.1 -0.8,-0.1 -0.5,-0.1 -1.1,-0.2 -1.6,-0.3 -1.1,-0.2 -2.2,-0.5 -3.3,-0.8 -1,-0.3 -2,-0.6 -3,-1 -0.5,-0.2 -1,-0.4 -1.5,-0.6 -0.7,-0.3 1,0.5 0.3,0.1 -0.3,-0.1 -0.6,-0.3 -0.9,-0.4 -2,-0.9 -3.9,-2 -5.7,-3.2 -0.6,-0.4 -2.2,-1.1 -2.5,-1.8 0,0.1 1.1,0.9 0.3,0.2 -0.2,-0.2 -0.4,-0.3 -0.6,-0.5 -0.4,-0.4 -0.9,-0.7 -1.3,-1.1 -1.6,-1.4 -3,-2.9 -4.4,-4.6 -0.2,-0.2 -0.3,-0.4 -0.5,-0.6 -0.7,-0.8 0.1,0.3 0.2,0.3 -0.3,-0.2 -0.7,-0.9 -0.9,-1.2 -0.7,-0.9 -1.3,-1.9 -1.9,-2.9 -0.5,-0.9 -1,-1.8 -1.5,-2.7 -0.2,-0.5 -0.5,-0.9 -0.7,-1.4 -0.1,-0.2 -0.2,-0.5 -0.3,-0.7 -0.4,-1 0.3,0.9 0.1,0.1 -0.7,-2 -1.5,-4.1 -2,-6.2 -0.2,-1 -0.5,-2.1 -0.6,-3.1 0,0 -0.2,-0.7 -0.1,-0.8 -0.1,0.2 0.1,1.2 0.1,0.4 -0.1,-0.7 -0.1,-1.4 -0.2,-2 -0.2,-2.3 -0.1,-4.5 0,-6.8 0,-0.5 0.1,-1.1 0.1,-1.6 0.2,-1.5 -0.2,1.1 0.1,-0.4 0.2,-1.1 0.4,-2.2 0.7,-3.3 0.2,-1 0.5,-2 0.9,-3 0.1,-0.5 0.3,-1 0.5,-1.5 0.1,-0.4 0.4,-1.6 0.7,-1.8 0,0 -0.6,1.3 -0.1,0.3 0.1,-0.2 0.2,-0.5 0.3,-0.7 0.2,-0.5 0.4,-0.9 0.7,-1.4 0.5,-1 1,-1.9 1.6,-2.9 0.5,-0.9 1.1,-1.7 1.7,-2.6 0.3,-0.4 0.6,-0.8 0.9,-1.2 0.4,-0.6 -0.7,0.9 -0.2,0.3 0.2,-0.2 0.4,-0.5 0.6,-0.7 1.4,-1.7 2.9,-3.2 4.5,-4.7 0.4,-0.4 0.8,-0.7 1.2,-1 0.2,-0.2 0.4,-0.3 0.6,-0.5 0.5,-0.4 0.1,-0.4 -0.3,0.2 0.4,-0.7 2,-1.4 2.7,-1.9 1.8,-1.1 3.6,-2.2 5.6,-3.1 0.2,-0.1 0.5,-0.2 0.7,-0.3 1,-0.5 -0.3,0.1 -0.3,0.1 0.1,-0.2 1.2,-0.5 1.4,-0.6 1.1,-0.4 2.2,-0.8 3.4,-1.1 1,-0.3 2.1,-0.5 3.1,-0.7 0.5,-0.1 1.1,-0.2 1.6,-0.3 0.3,0 0.6,-0.1 0.8,-0.1 -0.6,0.2 -1.1,0.1 -0.2,0 2.3,-0.3 4.6,-0.4 6.9,-0.3 1.1,0.1 2.2,0.1 3.2,0.3 1.5,0.2 -1.1,-0.2 0.4,0.1 0.6,0.1 1.2,0.2 1.8,0.3 2.2,0.4 4.4,1.1 6.4,1.8 0.3,0.1 1.3,0.3 1.4,0.6 0,0 -1.3,-0.6 -0.3,-0.1 0.2,0.1 0.5,0.2 0.7,0.3 1,0.5 2,1 2.9,1.5 0.9,0.5 1.8,1 2.6,1.6 0.7,0.5 2.2,1.2 2.7,1.9 -0.4,-0.6 -0.8,-0.6 -0.3,-0.2 0.2,0.2 0.4,0.3 0.6,0.5 0.4,0.3 0.8,0.7 1.2,1 0.9,0.8 1.7,1.6 2.5,2.4 0.7,0.7 1.4,1.5 2.1,2.3 0.2,0.2 0.3,0.4 0.5,0.6 0.4,0.5 0.4,0.1 -0.2,-0.3 0.4,0.2 0.8,1 1,1.4 1.2,1.7 2.3,3.6 3.3,5.4 0.2,0.5 0.5,0.9 0.7,1.4 0.1,0.2 0.2,0.5 0.3,0.7 0.5,1 -0.1,-0.3 -0.1,-0.3 0.2,0.1 0.5,1.2 0.6,1.4 0.2,0.6 0.4,1.2 0.6,1.9 0.7,2.1 1.2,4.2 1.5,6.4 0.2,1.5 -0.1,-1.1 0.1,0.4 0.1,0.5 0.1,1.1 0.1,1.6 0.1,1.3 0.1,2.5 0.1,3.6 0,3.1 2.7,6 5.9,5.9 3.2,-0.1 5.9,-2.6 5.9,-5.9 -0.1,-10.1 -3.1,-20.4 -9,-28.7 -6.1,-8.5 -14.4,-14.9 -24.2,-18.5 -19.3,-7.1 -42.2,-0.9 -55.3,15 -6.7,8.2 -10.7,17.9 -11.6,28.5 -0.9,10.2 1.7,20.9 7.1,29.6 5.1,8.4 12.7,15.4 21.7,19.4 9.9,4.5 20.7,5.8 31.4,3.6 19.8,-3.9 36.1,-20.8 39.2,-40.8 0.4,-2.7 0.7,-5.5 0.7,-8.3 0,-3.1 -2.7,-6 -5.9,-5.9 -3.2,0.4 -5.9,2.8 -5.9,6.1 z"
   class="st1" />
			</g>
		</g>
	</g>
</g></g>
</svg>