<svg id="Layer_1" data-name="Layer 1" xmlns="http://www.w3.org/2000/svg" viewBox="0 0 1232.4 1232.3"><defs><style>.cls-1{fill:#fff;}.cls-2{fill:#74a897;}.cls-3{fill:#88ceb9;}</style></defs><title>DM_Icon</title><path class="cls-1" d="M1558.85,1532H678.45c-96.8,0-176-79.2-176-176V475.75c0-96.8,79.2-176,176-176h880.4c96.8,0,176,79.2,176,176v880.4C1734.85,1452.85,1655.65,1532,1558.85,1532Z" transform="translate(-502.45 -299.75)"/><polygon class="cls-2" points="610.88 454.13 563.72 388.12 960.53 388.12 960.53 454.13 610.88 454.13"/><path class="cls-3" d="M1047.31,661.46,981.3,569h-284v699.7h792.11V661.46ZM1463,753.87H1113.32l-47.16-66H1463v66Z" transform="translate(-502.45 -299.75)"/><path class="cls-1" d="M969.78,816v349h255.39V901.1h-76.62a8.51,8.51,0,0,1-8.51-8.51V816Zm187.28,8.51v59.59h59.59Z" transform="translate(-502.45 -299.75)"/></svg>