<svg xmlns="http://www.w3.org/2000/svg" viewBox="0 0 1232.4 1232.3"><defs><style>.cls-1{fill:#af3f3f;}.cls-2,.cls-3{fill:#fff;}.cls-2{stroke:#000;stroke-miterlimit:10;stroke-width:4px;}.cls-4{fill:#6fbc90;}.cls-5{fill:#79cbf2;}.cls-6{fill:#c8e09b;}.cls-7{fill:#afafaf;}</style></defs><title>Map_icon</title><g id="Layer_11" data-name="Layer 11"><polygon class="cls-1" points="238.16 505.74 569.65 918.85 217.16 925.72 166.17 918.85 238.16 505.74"/></g><g id="Layer_1" data-name="Layer 1"><g id="Layer_2" data-name="Layer 2"><path d="M286.61,1013.46A23.72,23.72,0,0,1,263,989.81V469.45a23.65,23.65,0,0,1,47.3,0V989.81A23.72,23.72,0,0,1,286.61,1013.46Z"/><path d="M665,918.85A23.72,23.72,0,0,1,641.4,895.2V564.06a23.65,23.65,0,1,1,47.3,0V895.2A23.72,23.72,0,0,1,665,918.85Z"/><polygon class="cls-2" points="592.46 690.29 885.01 147.51 299.92 147.51 592.46 690.29"/></g></g><g id="Layer_9" data-name="Layer 9"><path class="cls-3" d="M1056.4,1232.3H176c-96.8,0-176-79.2-176-176V176C0,79.2,79.2,0,176,0h880.4c96.8,0,176,79.2,176,176v880.4C1232.4,1153.1,1153.2,1232.3,1056.4,1232.3Z"/><polygon class="cls-4" points="238.16 472.75 569.65 892.73 166.17 892.73 238.16 472.75"/><polyline class="cls-5" points="245.66 472.75 416.72 698.97 553.96 585.86 488.93 465.2"/><polygon class="cls-6" points="569.65 885.85 428.65 696.63 562.15 592.74 610.14 696.63 688.14 573.24 944.63 892.73 569.65 885.85"/><polygon class="cls-5" points="839.63 750.23 944.63 892.73 1060.12 885.85 1040.62 744.23 839.63 750.23"/><path class="cls-6" d="M694.28,550.23c15.77-18.21,59.61-85.71,59.61-85.71l244.31-3.05L1007,579.65,715.91,594Z"/><polygon class="cls-4" points="715.14 594.24 832.13 744.23 1040.62 744.23 1016.62 594.24 715.14 594.24"/><path class="cls-3" d="M232.63,455.62c-6.29,0-10.06,4.09-10.65,9L158,890.8c-1,6.1,4.48,12.4,10.65,12.32h895c6.18.11,11.62-6.22,10.65-12.32l-63.93-426.19a11,11,0,0,0-10.65-9H759.37l-10.32,21.31h241.4l16,106.55H713.09l-9.66-12L693.11,592.8l231.08,289H578.58L436.73,704.34l110.88-93.9L538,590.13,423.08,687.36,254.94,476.93H483.35L473,455.62H232.63Zm7,36.63L551.27,881.81H181ZM730.07,604.78h279.69l19.31,127.86H832.29ZM849.27,754h182.8l19.31,127.86H951.49Z"/><polygon class="cls-7" points="617.29 619.9 615.1 444.84 601.58 441.65 502.71 418.23 617.29 619.9"/><path class="cls-7" d="M618.72,735,836,329.18,614.38,387.55l-223-52.81Zm-4-318.76,6.72-1.77,160-42.12L618,677.43l-171-301,161,38.12Z"/></g></svg>