<?xml version="1.0" encoding="UTF-8" standalone="no"?>
<svg
   xmlns:dc="http://purl.org/dc/elements/1.1/"
   xmlns:cc="http://creativecommons.org/ns#"
   xmlns:rdf="http://www.w3.org/1999/02/22-rdf-syntax-ns#"
   xmlns:svg="http://www.w3.org/2000/svg"
   xmlns="http://www.w3.org/2000/svg"
   xmlns:sodipodi="http://sodipodi.sourceforge.net/DTD/sodipodi-0.dtd"
   xmlns:inkscape="http://www.inkscape.org/namespaces/inkscape"
   id="Layer_1"
   data-name="Layer 1"
   viewBox="0 0 1232 1232"
   version="1.1"
   sodipodi:docname="settings.svg"
   inkscape:version="0.92.3 (2405546, 2018-03-11)">
  <metadata
     id="metadata13">
    <rdf:RDF>
      <cc:Work
         rdf:about="">
        <dc:format>image/svg+xml</dc:format>
        <dc:type
           rdf:resource="http://purl.org/dc/dcmitype/StillImage" />
        <dc:title></dc:title>
      </cc:Work>
    </rdf:RDF>
  </metadata>
  <sodipodi:namedview
     pagecolor="#ffffff"
     bordercolor="#666666"
     borderopacity="1"
     objecttolerance="10"
     gridtolerance="10"
     guidetolerance="10"
     inkscape:pageopacity="0"
     inkscape:pageshadow="2"
     inkscape:window-width="2007"
     inkscape:window-height="1093"
     id="namedview11"
     showgrid="false"
     inkscape:zoom="0.38311688"
     inkscape:cx="571.90903"
     inkscape:cy="703.23022"
     inkscape:window-x="99"
     inkscape:window-y="34"
     inkscape:window-maximized="0"
     inkscape:current-layer="Layer_1" />
  <defs
     id="defs4">
    <style
       id="style2">.cls-1{fill:#ddc9af;}.cls-2{fill:#498dc4;}</style>
  </defs>
  <path
     class="cls-2"
     d="M 907.7548,693.21949 1005.3627,693.0095 1005,522 l -98.2379,0.20999 a 296.33628,296.33628 0 0 0 -22.45,-54.04419 l 69.8508,-69.23995 -120.3824,-121.45148 -69.92719,69.3163 A 298.0544,298.0544 0 0 0 706.88832,322.9089 V 224.61376 H 535.87883 v 97.6079 a 298.22621,298.22621 0 0 0 -62.46295,26.47803 l -70.34718,-67.23548 -118.14889,123.5514 69.69811,66.6055 a 297.90167,297.90167 0 0 0 -20.99915,51.81065 l -96.13796,0.20999 0.36271,171.0095 95.45071,-0.20999 a 296.41264,296.41264 0 0 0 23.06089,56.12502 l -67.77,67.15912 120.38244,121.45149 67.77,-67.15913 a 296.77536,296.77536 0 0 0 59.14127,24.56902 v 95.45071 h 171.00949 v -96.13796 a 297.30988,297.30988 0 0 0 62.99747,-27.2989 l 69.75541,66.66278 118.1489,-123.62777 -70.3663,-67.25457 a 298.6271,298.6271 0 0 0 20.331,-51.16158 z M 629.21053,782.65681 A 165.89334,165.89334 0 1 1 795.08478,616.78256 165.87425,165.87425 0 0 1 629.13417,782.65681 Z"
     id="path8"
     inkscape:connector-curvature="0"
     style="fill:#498dc4;stroke-width:1.90901423" />
</svg>
